<?xml version="1.0" encoding="iso-8859-1"?>
<!-- Uploaded to: SVG Repo, www.svgrepo.com, Generator: SVG Repo Mixer Tools -->
<!DOCTYPE svg PUBLIC "-//W3C//DTD SVG 1.1//EN" "http://www.w3.org/Graphics/SVG/1.1/DTD/svg11.dtd">
<svg fill="#000000" height="800px" width="800px" version="1.1" id="Capa_1" xmlns="http://www.w3.org/2000/svg" xmlns:xlink="http://www.w3.org/1999/xlink" 
	 viewBox="0 0 260.211 260.211" xml:space="preserve">
<g>
	<path d="M245.877,222.036c0.015,0.024,0.003,0.054,0.017,0.078C245.964,222.191,245.982,222.198,245.877,222.036z"/>
	<path d="M245.894,222.114c-0.689-0.773-9.161-12.305-8.042-10.32c-3.043-5.399-11.043-3.578-1.335-6.357
		c1.224-0.351,1.608-1.883,0.737-2.792c-25.301-26.389-60.387-30.861-95.154-33.585c-0.066-3.205-1.539-6.377-4.456-7.83
		c-0.799-1.548-2.064-2.808-3.715-3.421c-0.033-0.061-0.049-0.127-0.084-0.188c-1.486-2.559-5.264-4.637-8.213-3.658
		c-2.965-3.757-7.479-7.833-9.03-9.772c-8.075-10.093-16.181-20.161-24.239-30.268C77.435,95.2,62.721,76.289,47.525,57.78
		c-2.263-3.297-4.514-6.604-6.698-9.967c-1.557-13.933-2.45-27.267-1.162-41.428c0.887-0.163,1.421-1.456,0.681-2.139
		C35.052-0.642,26.567-1.051,20.14,1.7c-1.782,0.763-5.704,2.522-5.984,4.805c-0.086,0.705,0.079,1.278,0.449,1.655
		c-0.359,0.436-0.538,1.028-0.361,1.748c3.284,13.393,5.226,29.638,11.68,41.919c5.592,10.638,15.752,19.037,23.695,27.793
		c23.903,26.348,45.773,54.908,70.24,80.695c-0.68,1.667-0.003,4.345,0.987,5.635c0.311,0.405,0.659,0.772,1.035,1.102
		c-0.32,1.337,0.187,3.135,0.95,4.081c0.758,0.941,1.756,1.526,2.848,1.881c0.271,2.954,2.534,4.541,5.229,5.049
		c1.897,18.186,8.24,33.689,18.889,48.624c1.065,1.494,3.105,0.875,3.309-0.896c-0.164,1.427,17.345,15.948,20.748,18.405
		c10.992,7.937,23.128,12.822,36.267,15.952c1.9,0.453,2.932-1.694,1.798-3.088c-5.893-5.452-5.46-6.801,1.299-4.044
		c1.241,0.288,2.899-0.899,2.312-2.312c-3.512-8.456,22.036,1.794,23.959,2.489c1.445,0.522,2.677-1.304,1.945-2.53
		c-4.537-7.6-9.693-13.501-16.324-18.941c2.386,0.05,4.772,0.1,7.16,0.139c1.192,0.021,1.96-1.352,1.357-2.366
		c-6.705-11.291,1.464-8.592,10.327-4.957C245.32,225.097,246.552,223.29,245.894,222.114z M17.762,6.886
		c-0.254-0.112-0.478-0.072-0.702-0.044c1.292-0.458,3.5-1.874,4.134-2.105c2.042-0.741,4.201-1.139,6.373-1.194
		c3.009-0.076,5.681,0.632,8.353,1.608C30.9,10.921,24.758,9.982,17.762,6.886z M121.805,162.386c0.384,0.4,0.756,0.815,1.141,1.213
		c0.54,0.559,1.312,0.316,1.735-0.182c2.046,0.759,3.468-0.176,3.679-3.959c0.045-0.803-0.36-1.785-0.936-2.827
		c1.082,0.088,2.11,0.312,3.095,1.192c0.272,0.243,0.44,0.538,0.64,0.818c-0.01,0.473,0.214,0.896,0.611,1.185
		c0.442,1.318,0.333,2.788-0.432,4.084c-1.311,2.221-4.005,3.06-6.365,2.004C123.969,165.466,122.303,163.895,121.805,162.386z
		 M125.628,170.183c-0.309-0.231-0.618-0.462-0.927-0.693c-0.304-0.346-0.517-0.722-0.666-1.12c2.421,1.027,5.294,0.886,7.523-0.755
		c1.644-1.21,2.688-3.067,3.043-5.035c0.102,0.292,0.255,0.578,0.547,0.789c0.113,0.082,0.216,0.181,0.327,0.267
		c0.389,1.63-0.057,3.471-1.504,4.876c-1.344,1.305-3.238,2.073-5.1,2.196C127.795,170.779,126.596,170.696,125.628,170.183z
		 M128.11,173.416c1.715,0.033,3.477-0.354,4.921-1.001c2.447-1.096,4.47-3.159,5.208-5.677c1.132,2.024,1.301,4.369-0.658,6.529
		C135.091,176.013,130.3,176.267,128.11,173.416z M238.336,218.448c0.454-1.283-15.437-1.5-14.517-1.498
		c-1.644-0.004-2.25,1.922-1.269,3.063c7.389,7.222,7.369,10.325-0.06,9.309c-0.097,0.006-0.135,0.082-0.22,0.105
		c-1.689-1.081-3.254,1.709-1.58,2.969c3.405,2.941,6.81,5.882,10.215,8.822c4.05,5.73,3.614,7.304-1.309,4.723
		c-3.138,0.757-15.766-3.845-18.635-4.374c-1.233-0.227-2.94,0.863-2.327,2.327c1.662,5.159,0.065,5.96-4.795,2.407
		c-1.552-0.574-2.912,1.42-2.105,2.739c7.756,12.676-7.949,2.673-14.884-1.045c-13.552-7.266-24.297-17.383-33.215-29.818
		c-1.071-1.493-3.12-0.884-3.322,0.9c-0.157,1.399-9.406-14.832-10.241-16.861c-3.222-7.839-5.345-15.703-7.012-23.975
		c2.359-0.046,4.751-0.795,6.294-2.185c1.138-1.026,1.902-2.368,2.346-3.827c17.876,1.576,35.95,3.096,53.159,8.491
		c3.566,1.118,48.698,19.226,30.992,24.309c-1.302,0.374-1.725,2.388-0.398,3.046C227.895,209.285,239.185,216.051,238.336,218.448z
		"/>
</g>
</svg>